<?xml version="1.0" standalone="no"?>
<!DOCTYPE svg PUBLIC "-//W3C//DTD SVG 20010904//EN"
 "http://www.w3.org/TR/2001/REC-SVG-20010904/DTD/svg10.dtd">
<svg version="1.0" xmlns="http://www.w3.org/2000/svg"
 width="2048.000000pt" height="2048.000000pt" viewBox="0 0 2048.000000 2048.000000"
 preserveAspectRatio="xMidYMid meet">
<metadata>
Created by potrace 1.14, written by Peter Selinger 2001-2017
</metadata>
<g transform="translate(0.000000,2048.000000) scale(0.100000,-0.100000)"
fill="#000000" stroke="none">
<path d="M6809 19284 c-35 -11 -65 -33 -117 -87 -98 -101 -3448 -4361 -3478
-4422 -18 -38 -24 -67 -24 -120 0 -51 227 -1881 253 -2042 3 -16 -222 -315
-905 -1204 -500 -650 -914 -1193 -919 -1206 -6 -17 44 -337 181 -1156 105
-622 196 -1148 204 -1167 22 -60 3836 -6303 3874 -6342 l36 -38 4328 0 4328 0
29 27 c31 31 3856 6296 3877 6353 8 19 99 545 204 1167 137 821 187 1139 181
1156 -5 13 -400 532 -878 1153 l-869 1130 22 244 21 245 -23 230 c-13 127 -37
329 -53 449 l-31 219 -75 175 c-97 224 -300 572 -357 611 -20 14 -40 35 -44
46 -4 11 -51 114 -104 230 -68 147 -107 245 -128 326 -215 805 -593 1537
-1118 2165 -200 240 -512 534 -774 730 -831 622 -1805 944 -2849 944 -855 0
-1773 -228 -2563 -636 l-96 -50 -979 439 c-913 409 -982 439 -1043 442 -40 3
-83 -1 -111 -11z m9307 -4565 c76 -45 190 -118 252 -163 l113 -81 103 -175
c58 -96 118 -206 134 -245 107 -248 102 -228 132 -450 34 -253 63 -530 57
-547 -2 -7 0 -23 4 -35 5 -13 4 -25 -2 -28 -5 -4 -7 -10 -4 -15 3 -5 1 -11 -5
-15 -7 -4 -6 -13 1 -27 8 -15 8 -26 -1 -43 -9 -17 -9 -28 0 -44 7 -14 8 -27 3
-34 -10 -13 -16 -52 -17 -114 -1 -24 -4 -43 -8 -43 -8 0 -21 -55 -23 -98 -1
-19 -7 -37 -14 -41 -7 -5 -9 -11 -4 -14 10 -6 10 -48 -1 -65 -4 -7 -2 -12 6
-12 8 0 9 -3 3 -8 -15 -11 -34 -71 -24 -77 4 -3 4 -16 -1 -30 -5 -13 -9 -33
-9 -44 -1 -12 -1 -30 -2 -41 0 -11 -3 -19 -7 -16 -4 2 -7 -8 -8 -22 -6 -161
-154 -635 -297 -952 -100 -223 -152 -324 -268 -527 -55 -95 -99 -175 -99 -177
0 -17 -93 -157 -206 -311 -175 -238 -340 -415 -621 -664 -206 -183 -251 -218
-410 -317 -149 -94 -212 -126 -388 -199 -199 -82 -219 -88 -380 -116 -156 -27
-182 -29 -318 -23 l-147 6 -136 57 -136 56 -97 160 -97 160 -41 255 c-23 140
-40 266 -37 280 2 14 18 159 34 322 l30 297 101 363 c56 200 111 383 124 408
12 25 84 214 161 420 l138 375 145 225 c124 192 156 251 223 407 76 176 88
197 322 550 134 203 333 497 443 655 194 280 201 288 301 371 85 70 117 106
199 219 l98 136 145 85 145 86 126 0 127 1 138 -81z m-12567 -2909 c68 -533
109 -859 144 -1126 28 -210 51 -272 121 -322 51 -36 446 -237 898 -456 l346
-169 32 -116 c99 -363 298 -875 432 -1113 21 -37 38 -70 38 -73 0 -10 220
-388 277 -474 277 -427 705 -885 1133 -1211 116 -88 353 -247 464 -311 32 -19
79 -46 105 -61 414 -242 1133 -482 1616 -539 44 -5 91 -12 105 -15 29 -7 67
-13 130 -19 25 -2 45 -5 45 -5 0 -1 32 -2 72 -3 39 -1 69 -5 67 -9 -8 -13 21
-9 34 4 8 8 12 8 12 1 0 -7 27 -10 75 -9 41 0 75 5 75 9 0 5 5 5 10 2 6 -4 7
-11 4 -17 -5 -7 -2 -8 6 -3 16 10 187 10 218 1 12 -4 22 -3 22 2 0 5 19 8 43
7 23 -1 53 3 67 7 16 6 26 6 28 -2 3 -8 8 -8 17 0 8 7 54 13 102 14 48 2 101
8 116 15 16 6 26 7 23 2 -8 -12 45 -8 69 6 29 16 37 16 47 1 7 -9 11 -10 14
-2 3 7 14 9 26 6 12 -3 19 -1 15 4 -3 5 7 9 21 8 15 -1 37 2 48 7 13 4 26 3
33 -4 8 -8 11 -8 11 0 0 6 7 14 16 17 10 4 13 2 8 -7 -5 -8 -2 -8 9 2 9 7 24
11 32 7 8 -3 15 -2 15 3 0 4 17 9 38 10 54 2 73 6 80 17 10 13 43 14 35 0 -4
-6 1 -5 10 3 9 7 17 10 17 7 0 -4 6 -4 12 0 13 8 20 10 79 18 19 2 51 11 70
18 19 8 40 13 47 11 6 -3 12 0 12 6 0 10 74 28 93 23 4 -1 7 2 7 8 0 5 6 7 14
4 7 -3 21 2 30 11 11 11 16 13 16 4 0 -10 3 -10 12 -1 7 7 20 12 30 12 10 0
18 5 18 10 0 6 3 9 8 8 14 -4 81 13 109 27 15 8 43 15 61 15 18 0 31 4 28 9
-5 8 19 18 63 27 8 1 17 8 21 15 4 6 12 9 18 5 6 -3 12 -1 14 5 2 7 18 12 35
13 17 0 31 3 30 6 -1 3 1 6 6 7 4 2 21 10 38 19 17 8 33 13 36 10 3 -3 17 3
31 14 13 11 28 17 33 14 5 -3 9 -1 9 4 0 6 12 13 27 16 64 17 567 266 757 375
492 285 1061 734 1527 1207 362 369 558 615 899 1129 142 215 272 404 289 420
17 17 137 135 266 264 213 211 250 253 380 432 141 191 367 566 492 812 198
395 358 842 448 1260 14 65 20 76 30 65 53 -55 1565 -2043 1562 -2051 -5 -14
-3901 -6290 -3929 -6329 l-19 -28 -4439 0 -4439 0 -19 28 c-28 39 -3924 6315
-3929 6329 -4 9 672 899 1112 1464 49 64 187 243 305 397 118 154 216 277 217
274 1 -4 29 -221 62 -482z m229 -5167 c1101 -1780 1853 -3005 1857 -3025 11
-65 156 -1503 153 -1521 -2 -10 -795 1276 -1800 2918 l-1797 2937 -136 826
c-74 455 -138 838 -141 852 -3 16 -2 21 4 15 5 -5 842 -1356 1860 -3002z
m14787 2995 c-2 -7 -65 -390 -141 -851 l-137 -839 -1796 -2934 c-988 -1614
-1797 -2931 -1799 -2926 -2 7 28 309 123 1219 l35 343 1857 3000 c1021 1650
1858 3000 1859 3000 2 0 2 -6 -1 -12z m-3950 -6105 c-3 -21 -44 -429 -90 -908
-47 -478 -87 -880 -90 -892 l-5 -23 -4190 0 -4190 0 -5 23 c-3 12 -43 414 -90
892 -46 479 -87 887 -90 908 l-5 37 4380 0 4380 0 -5 -37z"/>
<path d="M10510 5820 c0 -5 5 -10 11 -10 5 0 7 5 4 10 -3 6 -8 10 -11 10 -2 0
-4 -4 -4 -10z"/>
</g>
</svg>
