<?xml version="1.0" encoding="UTF-8"?>
<svg width="7px" height="11px" viewBox="0 0 7 11" version="1.1" xmlns="http://www.w3.org/2000/svg" xmlns:xlink="http://www.w3.org/1999/xlink">
    <title>Fill 1</title>
    <g id="Responsive" stroke="none" stroke-width="1" fill="none" fill-rule="evenodd">
        <g id="Galaxy-S10+" transform="translate(-11.000000, -59.000000)" fill="#FFFFFF">
            <g id="Group-10" transform="translate(0.000000, 18.000000)">
                <path d="M11,41 L11,51.5229576 L13.4374057,51.5229576 L13.4374057,49.5422814 L14.8075943,49.5422814 L14.8075943,51.5229576 L17.245,51.5229576 L17.245,41 L11,41 Z M14.789416,42.5345506 L15.1317738,41.9407265 L15.8164894,41.9407265 L16.1596046,42.5345506 L15.8164894,43.1276173 L15.1317738,43.1276173 L14.789416,42.5345506 Z M12.0861528,42.5345506 L12.4277532,41.9407265 L13.1132262,41.9407265 L13.4563414,42.5345506 L13.1132262,43.1276173 L12.4277532,43.1276173 L12.0861528,42.5345506 Z M14.789416,44.4364542 L15.1317738,43.8433875 L15.8164894,43.8433875 L16.1596046,44.4364542 L15.8164894,45.0302784 L15.1317738,45.0302784 L14.789416,44.4364542 Z M12.0861528,44.4364542 L12.4277532,43.8433875 L13.1132262,43.8433875 L13.4563414,44.4364542 L13.1132262,45.0302784 L12.4277532,45.0302784 L12.0861528,44.4364542 Z M14.789416,46.3391152 L15.1317738,45.7460485 L15.8164894,45.7460485 L16.1596046,46.3391152 L15.8164894,46.9329394 L15.1317738,46.9329394 L14.789416,46.3391152 Z M12.0861528,46.3391152 L12.4277532,45.7460485 L13.1132262,45.7460485 L13.4563414,46.3391152 L13.1132262,46.9329394 L12.4277532,46.9329394 L12.0861528,46.3391152 Z M14.789416,48.2417762 L15.1317738,47.6487095 L15.8164894,47.6487095 L16.1596046,48.2417762 L15.8164894,48.8356004 L15.1317738,48.8356004 L14.789416,48.2417762 Z M12.0861528,48.2417762 L12.4277532,47.6487095 L13.1132262,47.6487095 L13.4563414,48.2417762 L13.1132262,48.8356004 L12.4277532,48.8356004 L12.0861528,48.2417762 Z" id="Fill-1"></path>
            </g>
        </g>
    </g>
</svg>