<?xml version="1.0" encoding="utf-8"?>
<!-- Generator: Adobe Illustrator 25.3.0, SVG Export Plug-In . SVG Version: 6.00 Build 0)  -->
<svg version="1.1" id="Calque_1" xmlns="http://www.w3.org/2000/svg" xmlns:xlink="http://www.w3.org/1999/xlink" x="0px" y="0px"
	 viewBox="0 0 40 40" style="enable-background:new 0 0 40 40;" xml:space="preserve">
<style type="text/css">
	.st0{fill:#5865F2;}
</style>
<g id="Responsive">
	<g id="Galaxy-S10_x2B_-Copy-12" transform="translate(-109.000000, -645.000000)">
		<g id="Discord-Logo-Color" transform="translate(131.000000, 667.000000)">
			<path id="Shape" class="st0" d="M5.6-8.7C4.2-9.3,2.7-9.7,1.1-10c0,0-0.1,0-0.1,0C0.9-9.6,0.7-9.2,0.5-8.9c-1.7-0.2-3.4-0.2-5,0
				C-4.7-9.2-4.9-9.6-5.1-10c0,0,0,0-0.1,0c-1.6,0.3-3.1,0.7-4.5,1.3c0,0,0,0,0,0c-2.9,4.1-3.6,8-3.3,11.9c0,0,0,0,0,0
				C-11,4.7-9.2,5.5-7.4,6c0,0,0.1,0,0.1,0c0.4-0.6,0.8-1.1,1.1-1.7c0,0,0-0.1,0-0.1c-0.6-0.2-1.2-0.5-1.7-0.8c0,0,0-0.1,0-0.1
				C-7.8,3.2-7.7,3.1-7.6,3c0,0,0,0,0.1,0C-3.9,4.5,0,4.5,3.5,3c0,0,0.1,0,0.1,0c0.1,0.1,0.2,0.2,0.3,0.3c0,0,0,0.1,0,0.1
				C3.4,3.7,2.8,3.9,2.2,4.1c0,0-0.1,0.1,0,0.1C2.5,4.8,2.9,5.4,3.3,6c0,0,0,0,0.1,0C5.2,5.5,7,4.7,8.9,3.3c0,0,0,0,0,0
				C9.4-1.2,8.1-5.2,5.6-8.7C5.6-8.7,5.6-8.7,5.6-8.7z M-5.6,0.9c-1.1,0-2-0.9-2-2.1s0.9-2.1,2-2.1c1.1,0,2,1,2,2.1
				C-3.7,0-4.5,0.9-5.6,0.9z M1.7,0.9c-1.1,0-2-0.9-2-2.1s0.9-2.1,2-2.1c1.1,0,2,1,2,2.1C3.6,0,2.8,0.9,1.7,0.9z"/>
		</g>
	</g>
</g>
</svg>
