<?xml version="1.0" encoding="UTF-8" standalone="no"?>
<!-- Generator: Adobe Illustrator 16.0.0, SVG Export Plug-In . SVG Version: 6.00 Build 0)  -->

<svg
   xmlns:dc="http://purl.org/dc/elements/1.1/"
   xmlns:cc="http://creativecommons.org/ns#"
   xmlns:rdf="http://www.w3.org/1999/02/22-rdf-syntax-ns#"
   xmlns:svg="http://www.w3.org/2000/svg"
   xmlns="http://www.w3.org/2000/svg"
   xmlns:sodipodi="../../sodipodi.sourceforge.net/DTD/sodipodi-0.html"
   xmlns:inkscape="http://www.inkscape.org/namespaces/inkscape"
   version="1.1"
   id="Capa_1"
   x="0px"
   y="0px"
   viewBox="0 0 585.354 585.354"
   style="enable-background:new 0 0 585.354 585.354; fill: #444444;"
   xml:space="preserve"
   sodipodi:docname="lock.svg"
   inkscape:version="0.92.3 (2405546, 2018-03-11)"><metadata
   id="metadata13"><rdf:RDF><cc:Work
       rdf:about=""><dc:format>image/svg+xml</dc:format><dc:type
         rdf:resource="http://purl.org/dc/dcmitype/StillImage" /></cc:Work></rdf:RDF></metadata><defs
   id="defs11" /><sodipodi:namedview
   pagecolor="#ffffff"
   bordercolor="#666666"
   borderopacity="1"
   objecttolerance="10"
   gridtolerance="10"
   guidetolerance="10"
   inkscape:pageopacity="0"
   inkscape:pageshadow="2"
   inkscape:window-width="810"
   inkscape:window-height="480"
   id="namedview9"
   showgrid="false"
   inkscape:zoom="0.40317483"
   inkscape:cx="-9.9212543"
   inkscape:cy="292.677"
   inkscape:window-x="331"
   inkscape:window-y="271"
   inkscape:window-maximized="0"
   inkscape:current-layer="Capa_1" />
<g
   id="g6"
   style="fill:#000000">
	<g
   id="g4"
   style="fill:#000000">
		<path
   d="M292.679,0C198.29,0,121.496,76.791,121.496,171.183v97.767c0,1.111-1.371,2.983-2.448,3.341    c-9.257,3.087-16.775,5.762-23.657,8.415c-8.207,3.164-14.397,12.259-14.397,21.157v224.641c0,8.837,6.15,17.94,14.305,21.172    c63.097,25.003,129.505,37.678,197.379,37.678s134.282-12.678,197.382-37.681c8.152-3.231,14.299-12.332,14.299-21.169V301.863    c0-8.898-6.189-17.993-14.4-21.16c-6.885-2.653-14.402-5.328-23.652-8.415c-1.074-0.358-2.445-2.231-2.445-3.342V171.18    C463.857,76.791,387.068,0,292.679,0z M246.053,370.281c0-25.769,20.875-46.622,46.623-46.622    c25.746,0,46.621,20.851,46.621,46.622c0,17.075-9.629,31.371-23.311,39.475v77.081c0,12.886-10.426,23.311-23.311,23.311    c-12.886,0-23.311-10.425-23.311-23.311v-77.081C255.683,401.652,246.053,387.356,246.053,370.281z M405,171.18v84.355    c-36.834-7.926-74.623-11.94-112.306-11.943c-37.666,0-75.447,4.015-112.338,11.934V171.18c0-61.935,50.386-112.32,112.32-112.32    C354.609,58.859,405,109.245,405,171.18z"
   id="path2"
   style="fill:#000000" />
	</g>
</g>
</svg>