<?xml version="1.0" encoding="UTF-8" standalone="no"?>
<svg
   xmlns:dc="http://purl.org/dc/elements/1.1/"
   xmlns:cc="http://creativecommons.org/ns#"
   xmlns:rdf="http://www.w3.org/1999/02/22-rdf-syntax-ns#"
   xmlns:svg="http://www.w3.org/2000/svg"
   xmlns="http://www.w3.org/2000/svg"
   xmlns:sodipodi="../../sodipodi.sourceforge.net/DTD/sodipodi-0.html"
   xmlns:inkscape="http://www.inkscape.org/namespaces/inkscape"
   width="283.25833"
   height="35"
   viewBox="0 0 283.25833 35"
   version="1.1"
   id="svg26"
   sodipodi:docname="logo.svg"
   inkscape:version="0.92.3 (2405546, 2018-03-11)">
  <metadata
     id="metadata32">
    <rdf:RDF>
      <cc:Work
         rdf:about="">
        <dc:format>image/svg+xml</dc:format>
        <dc:type
           rdf:resource="http://purl.org/dc/dcmitype/StillImage" />
        <dc:title>Group</dc:title>
      </cc:Work>
    </rdf:RDF>
  </metadata>
  <defs
     id="defs30" />
  <sodipodi:namedview
     pagecolor="#000000"
     bordercolor="#666666"
     borderopacity="1"
     objecttolerance="10"
     gridtolerance="10"
     guidetolerance="10"
     inkscape:pageopacity="0"
     inkscape:pageshadow="2"
     inkscape:window-width="3440"
     inkscape:window-height="1373"
     id="namedview28"
     showgrid="false"
     fit-margin-top="0"
     fit-margin-left="0"
     fit-margin-right="0"
     fit-margin-bottom="0"
     inkscape:zoom="2.3139932"
     inkscape:cx="282.04053"
     inkscape:cy="26.70206"
     inkscape:window-x="-9"
     inkscape:window-y="-9"
     inkscape:window-maximized="1"
     inkscape:current-layer="Group" />
  <title
     id="title2">Group</title>
  <g
     id="Responsive"
     style="fill:none;fill-rule:evenodd;stroke:none;stroke-width:1">
    <g
       id="Galaxy-S10+-Copy-12"
       transform="translate(-33,-147)">
      <g
         id="Group"
         transform="translate(33,147)">
        <rect
           id="Rectangle"
           x="0"
           y="0"
           width="27"
           height="35"
           style="opacity:0.8;fill:#f1404b" />
        <rect
           id="Rectangle-Copy-4"
           x="30"
           y="0"
           width="27"
           height="35"
           style="opacity:0.8;fill:#3ac1c5" />
        <rect
           id="Rectangle-Copy-5"
           x="60"
           y="0"
           width="27"
           height="35"
           style="opacity:0.8;fill:#db5000" />
        <rect
           id="Rectangle-Copy-6"
           x="89"
           y="0"
           width="27"
           height="35"
           style="opacity:0.8;fill:#f9ae0c" />
        <rect
           id="Rectangle-Copy-7"
           x="119"
           y="0"
           width="27"
           height="35"
           style="opacity:0.8;fill:#f364c4" />
        <rect
           id="Rectangle-Copy-8"
           x="148"
           y="0"
           width="27"
           height="35"
           style="opacity:0.8;fill:#f9ae0c" />
        <rect
           id="Rectangle-Copy-10"
           x="179"
           y="0"
           width="27"
           height="35"
           style="opacity:0.8;fill:#3a65c5" />
        <rect
           id="Rectangle-Copy-11"
           x="208"
           y="0"
           width="27"
           height="35"
           style="opacity:0.8;fill:#cbe86b" />
        <path
           d="m 272,6.3094011 9.25833,5.3452999 v 10.690598 l -9.25833,5.3453 -9.25833,-5.3453 V 11.654701 Z"
           id="Polygon-Copy-498"
           inkscape:connector-curvature="0"
           style="stroke:#ffffff;stroke-width:4" />
        <polygon
           id="Fill-1"
           points="8.7540286,14.806127 8.7540286,7.3936522 4,6 4,28 8.7540286,26.56385 8.7540286,19.209321 18.245971,19.209321 18.245971,28 23,26.56385 23,7.3936522 18.245971,6 18.245971,14.806127 "
           style="fill:#ffffff" />
        <polygon
           id="Fill-2"
           points="36,6 49.499992,6 51,10.402985 40.379579,10.402985 40.379579,14.80597 46.015046,14.80597 47.566547,19.209217 40.379579,19.209217 40.379579,23.597015 51,23.597015 49.499992,28 36,28 "
           style="fill:#ffffff" />
        <polygon
           id="Fill-3"
           points="72.991788,20.896731 68.549229,28 63,28 70.056907,16.999869 63,6 68.549229,6 72.991788,13.103008 77.418471,6 83,6 75.943093,16.999869 83,28 77.418471,28 "
           style="fill:#ffffff" />
        <path
           d="m 107.24597,19.209216 v -4.402984 c 0,-0.603526 -0.12411,-1.173798 -0.37261,-1.710818 -0.2485,-0.536757 -0.58803,-1.004653 -1.01888,-1.403687 -0.43057,-0.398771 -0.93577,-0.713495 -1.5156,-0.943384 -0.57984,-0.230152 -1.19558,-0.345358 -1.84694,-0.345358 -0.65192,0 -1.26738,0.115206 -1.84722,0.345358 -0.57955,0.229889 -1.084749,0.544613 -1.515596,0.943384 -0.430566,0.399034 -0.770382,0.86693 -1.0186,1.403687 -0.248501,0.53702 -0.372892,1.107292 -0.372892,1.710818 v 4.402984 z M 112,26.880516 107.24597,28 v -4.402985 h -9.508338 v 3.283501 L 93,28 V 14.806232 c 0,-1.217262 0.248501,-2.360164 0.745503,-3.428966 0.497001,-1.068541 1.173241,-2.0022377 2.029282,-2.7997813 C 96.630262,7.7796794 97.635574,7.1504945 98.78959,6.690192 99.943324,6.2301513 101.17735,6 102.49194,6 c 1.31403,0 2.54806,0.2301513 3.70207,0.690192 1.15374,0.4603025 2.16188,1.0894874 3.02329,1.8872927 0.86141,0.7975436 1.54048,1.7312403 2.03748,2.7997813 0.497,1.068802 0.74522,2.211704 0.74522,3.428966 z"
           id="Fill-4"
           inkscape:connector-curvature="0"
           style="fill:#ffffff" />
        <polygon
           id="Fill-6"
           points="126.75403,13.517262 126.75403,26.640349 122,28 122,7.2977218 127.08536,6.0000524 136.24597,20.497977 136.24597,7.2977218 141,6.0000524 141,28 135.91464,28 "
           style="fill:#ffffff" />
        <path
           d="m 167.24597,19.209216 v -4.402984 c 0,-0.603526 -0.12411,-1.173798 -0.37261,-1.710818 -0.2485,-0.536757 -0.58803,-1.004653 -1.01888,-1.403687 -0.43057,-0.398771 -0.93577,-0.713495 -1.5156,-0.943384 -0.57984,-0.230152 -1.19558,-0.345358 -1.84694,-0.345358 -0.65192,0 -1.26738,0.115206 -1.84722,0.345358 -0.57955,0.229889 -1.08475,0.544613 -1.5156,0.943384 -0.43056,0.399034 -0.77038,0.86693 -1.0186,1.403687 -0.2485,0.53702 -0.37289,1.107292 -0.37289,1.710818 v 4.402984 z M 172,26.658573 167.24597,28 v -4.402985 h -9.50834 v 3.061558 L 153,28 V 14.806232 c 0,-1.217262 0.2485,-2.360164 0.7455,-3.428966 0.497,-1.068541 1.17324,-2.0022377 2.02928,-2.7997813 0.85548,-0.7978053 1.86079,-1.4269902 3.01481,-1.8872927 C 159.94332,6.2301513 161.17735,6 162.49194,6 c 1.31403,0 2.54806,0.2301513 3.70207,0.690192 1.15374,0.4603025 2.16188,1.0894874 3.02329,1.8872927 0.86141,0.7975436 1.54048,1.7312403 2.03748,2.7997813 0.497,1.068802 0.74522,2.211704 0.74522,3.428966 z"
           id="Fill-8"
           inkscape:connector-curvature="0"
           style="fill:#ffffff" />
        <path
           d="m 201,19.209216 c 0,1.217263 -0.2485,2.360426 -0.7455,3.428966 -0.49701,1.068803 -1.17607,1.99962 -2.03748,2.792188 -0.86142,0.792569 -1.86927,1.419135 -3.02301,1.879176 C 194.04,27.769849 192.80597,28 191.49166,28 c -1.31431,0 -2.54834,-0.230151 -3.70235,-0.690454 -1.15402,-0.460041 -2.15905,-1.086607 -3.01481,-1.879176 -0.85576,-0.792568 -1.53228,-1.723385 -2.029,-2.792188 C 182.2485,21.569642 182,20.426479 182,19.209216 V 6 l 4.73763,1.5985896 V 19.209216 c 0,0.603788 0.12411,1.171442 0.37261,1.702963 0.2485,0.531783 0.58803,0.997322 1.01888,1.396094 0.43057,0.398771 0.93577,0.713495 1.5156,0.943384 0.57984,0.230152 1.1953,0.345358 1.84694,0.345358 0.65164,0 1.26738,-0.115206 1.84694,-0.345358 0.57983,-0.229889 1.08503,-0.544613 1.51588,-0.943384 0.43056,-0.398772 0.7701,-0.864311 1.0186,-1.396094 0.2485,-0.531521 0.37289,-1.099175 0.37289,-1.702963 V 6 L 201,7.5985896 Z"
           id="Fill-10"
           inkscape:connector-curvature="0"
           style="fill:#ffffff" />
        <polygon
           id="Fill-12"
           points="219.44525,10.402985 212.48976,10.402985 211,6 229.22715,6 231,10.402985 224.06076,10.402985 224.06076,28 219.44525,26.450472 "
           style="fill:#ffffff" />
        <path
           d="m 242,28.485403 c 0,0.350816 -0.0636,0.679925 -0.19013,0.986826 -0.12675,0.307151 -0.30216,0.572384 -0.52622,0.796697 -0.22457,0.224312 -0.48755,0.402215 -0.78946,0.533709 C 240.19203,30.934128 239.86541,31 239.5146,31 c -0.34134,0 -0.66521,-0.06587 -0.97211,-0.197365 -0.30715,-0.131494 -0.57538,-0.309397 -0.80418,-0.533709 -0.22905,-0.224313 -0.40945,-0.489546 -0.54095,-0.796697 C 237.06587,29.165328 237,28.836219 237,28.485403 c 0,-0.341084 0.0659,-0.662707 0.19736,-0.964868 0.1315,-0.301911 0.3119,-0.565148 0.54095,-0.789461 0.2288,-0.224312 0.49703,-0.402215 0.80418,-0.533709 C 238.84939,26.065872 239.17326,26 239.5146,26 c 0.35081,0 0.67743,0.06587 0.97959,0.197365 0.30191,0.131494 0.56489,0.309397 0.78946,0.533709 0.22406,0.224313 0.39947,0.48755 0.52622,0.789461 0.1265,0.302161 0.19013,0.623784 0.19013,0.964868"
           id="Fill-14"
           inkscape:connector-curvature="0"
           style="fill:#3ac1c5" />
        <polygon
           id="Fill-16"
           points="258,27.722356 262,30 262,7.007701 258,5 "
           transform="translate(-8)"
           style="fill:#ffffff" />
      </g>
    </g>
  </g>
</svg>
