<?xml version="1.0" encoding="UTF-8" standalone="no"?>
<!-- Generator: Adobe Illustrator 25.3.0, SVG Export Plug-In . SVG Version: 6.00 Build 0)  -->

<svg
   xmlns:dc="http://purl.org/dc/elements/1.1/"
   xmlns:cc="http://creativecommons.org/ns#"
   xmlns:rdf="http://www.w3.org/1999/02/22-rdf-syntax-ns#"
   xmlns:svg="http://www.w3.org/2000/svg"
   xmlns="http://www.w3.org/2000/svg"
   xmlns:sodipodi="../../sodipodi.sourceforge.net/DTD/sodipodi-0.html"
   xmlns:inkscape="http://www.inkscape.org/namespaces/inkscape"
   version="1.1"
   id="Calque_1"
   x="0px"
   y="0px"
   viewBox="0 0 18 18"
   style="enable-background:new 0 0 18 18;"
   xml:space="preserve"
   sodipodi:docname="settings.svg"
   inkscape:version="0.92.3 (2405546, 2018-03-11)"><metadata
   id="metadata13"><rdf:RDF><cc:Work
       rdf:about=""><dc:format>image/svg+xml</dc:format><dc:type
         rdf:resource="http://purl.org/dc/dcmitype/StillImage" /><dc:title></dc:title></cc:Work></rdf:RDF></metadata><defs
   id="defs11" /><sodipodi:namedview
   pagecolor="#000000"
   bordercolor="#666666"
   borderopacity="1"
   objecttolerance="10"
   gridtolerance="10"
   guidetolerance="10"
   inkscape:pageopacity="0"
   inkscape:pageshadow="2"
   inkscape:window-width="1695"
   inkscape:window-height="1155"
   id="namedview9"
   showgrid="false"
   inkscape:zoom="13.111111"
   inkscape:cx="-0.30508475"
   inkscape:cy="9"
   inkscape:window-x="0"
   inkscape:window-y="0"
   inkscape:window-maximized="0"
   inkscape:current-layer="Calque_1" />
<style
   type="text/css"
   id="style2">
	.st0{fill:#FFFFFF;}
</style>
<g
   id="Responsive">
	<g
   id="Galaxy-S10_x2B_-Copy-12"
   transform="translate(-250.000000, -42.000000)">
		<g
   id="settings"
   transform="translate(256.000000, 48.000000)">
			<path
   id="XMLID_521_"
   class="st0"
   d="M-5.9,6.1l1.7,2.8c0.2,0.3,0.6,0.5,1,0.4l2.5-0.8C-0.5,8.6-0.3,8.7,0,8.9l0.5,2.5     C0.6,11.7,0.9,12,1.3,12h3.4c0.4,0,0.7-0.3,0.8-0.7L6,8.9c0.2-0.1,0.5-0.2,0.7-0.4l2.5,0.8c0.4,0.1,0.8,0,1-0.4l1.7-2.8     c0.2-0.3,0.1-0.8-0.2-1l-2-1.7c0-0.1,0-0.3,0-0.4c0-0.1,0-0.3,0-0.4l2-1.7c0.3-0.3,0.4-0.7,0.2-1l-1.7-2.8     c-0.2-0.3-0.6-0.5-1-0.4L6.7-2.5C6.5-2.6,6.3-2.7,6-2.9L5.5-5.3C5.4-5.7,5.1-6,4.7-6H1.3C0.9-6,0.6-5.7,0.5-5.3L0-2.9     c-0.2,0.1-0.5,0.2-0.7,0.4l-2.5-0.8c-0.4-0.1-0.8,0-1,0.4l-1.7,2.8c-0.2,0.3-0.1,0.8,0.2,1l2,1.7c0,0.1,0,0.3,0,0.4s0,0.3,0,0.4     l-2,1.7C-6,5.3-6.1,5.7-5.9,6.1z M3-0.3c1.9,0,3.4,1.5,3.4,3.3S4.9,6.3,3,6.3S-0.4,4.8-0.4,3S1.1-0.3,3-0.3z" />
		</g>
	</g>
</g>
</svg>