<?xml version="1.0" encoding="UTF-8"?>
<svg width="12px" height="13px" viewBox="0 0 12 13" version="1.1" xmlns="http://www.w3.org/2000/svg" xmlns:xlink="http://www.w3.org/1999/xlink">
    <title>Group 14</title>
    <defs>
        <polygon id="path-1" points="0.4305 0.705344198 3.405 0.705344198 3.405 3.6799 0.4305 3.6799"></polygon>
        <polygon id="path-3" points="0 0.705544198 2.9744 0.705544198 2.9744 3.6801 0 3.6801"></polygon>
        <polygon id="path-5" points="0.4311 0.0256 3.405 0.0256 3.405 3 0.4311 3"></polygon>
    </defs>
    <g id="Responsive" stroke="none" stroke-width="1" fill="none" fill-rule="evenodd">
        <g id="Galaxy-S10+" transform="translate(-9.000000, -77.000000)">
            <g id="Group-10" transform="translate(0.000000, 18.000000)">
                <g id="Group-14" transform="translate(9.000000, 59.000000)">
                    <g id="Group-3" transform="translate(8.000000, 0.294700)">
                        <mask id="mask-2" fill="white">
                            <use xlink:href="#path-1"></use>
                        </mask>
                        <g id="Clip-2"></g>
                        <path d="M2.368,1.7424 C2.413,1.4674 2.329,1.1754 2.116,0.9644 C1.775,0.6244 1.218,0.6184 0.869,0.9504 C0.505,1.2984 0.5,1.8764 0.854,2.2304 L0.528,2.5554 C0.398,2.6854 0.398,2.8964 0.528,3.0264 L1.084,3.5824 C1.214,3.7124 1.425,3.7124 1.555,3.5824 L1.88,3.2564 C2.234,3.6104 2.812,3.6054 3.16,3.2414 C3.492,2.8924 3.486,2.3354 3.146,1.9944 C2.935,1.7814 2.643,1.6974 2.368,1.7424" id="Fill-1" fill="#FFFFFF" mask="url(#mask-2)"></path>
                    </g>
                    <g id="Group-6" transform="translate(0.000000, 0.294700)">
                        <mask id="mask-4" fill="white">
                            <use xlink:href="#path-3"></use>
                        </mask>
                        <g id="Clip-5"></g>
                        <path d="M1.5249,3.2566 L1.8509,3.5826 C1.9809,3.7126 2.1919,3.7126 2.3219,3.5826 L2.8769,3.0266 C3.0069,2.8966 3.0069,2.6856 2.8769,2.5556 L2.5509,2.2306 C2.9059,1.8756 2.9009,1.2986 2.5359,0.9506 C2.1869,0.6186 1.6299,0.6246 1.2889,0.9646 C1.0759,1.1756 0.9919,1.4676 1.0369,1.7426 C0.7619,1.6976 0.4709,1.7816 0.2589,1.9936 C-0.0811,2.3356 -0.0871,2.8926 0.2459,3.2416 C0.5929,3.6056 1.1709,3.6106 1.5249,3.2566" id="Fill-4" fill="#FFFFFF" mask="url(#mask-4)"></path>
                    </g>
                    <g id="Group-9" transform="translate(8.000000, 9.294700)">
                        <mask id="mask-6" fill="white">
                            <use xlink:href="#path-5"></use>
                        </mask>
                        <g id="Clip-8"></g>
                        <path d="M3.1596,0.4641 C2.8116,0.0991 2.2346,0.0941 1.8806,0.4491 L1.5546,0.1231 C1.4246,-0.0069 1.2136,-0.0069 1.0836,0.1231 L0.5286,0.6781 C0.3986,0.8081 0.3986,1.0191 0.5286,1.1501 L0.8536,1.4751 C0.4996,1.8291 0.5046,2.4071 0.8696,2.7541 C1.2176,3.0871 1.7746,3.0811 2.1166,2.7411 C2.3286,2.5291 2.4126,2.2381 2.3676,1.9631 C2.6426,2.0081 2.9346,1.9241 3.1466,1.7111 C3.4856,1.3701 3.4926,0.8131 3.1596,0.4641" id="Fill-7" fill="#FFFFFF" mask="url(#mask-6)"></path>
                    </g>
                    <path d="M1.0371,11.2576 C0.9921,11.5326 1.0761,11.8246 1.2891,12.0356 C1.6301,12.3756 2.1871,12.3816 2.5361,12.0496 C2.9001,11.7016 2.9051,11.1236 2.5511,10.7696 L2.8771,10.4446 C3.0071,10.3146 3.0071,10.1036 2.8771,9.9736 L2.3211,9.4176 C2.1911,9.2876 1.9801,9.2876 1.8501,9.4176 L1.5251,9.7436 C1.1711,9.3896 0.5931,9.3946 0.2451,9.7586 C-0.0869,10.1076 -0.0809,10.6646 0.2591,11.0056 C0.4701,11.2186 0.7621,11.3026 1.0371,11.2576" id="Fill-10" fill="#FFFFFF"></path>
                    <path d="M8.2388,7.0924 C8.2158,7.6674 7.7308,8.1154 7.1558,8.0934 C6.5808,8.0704 6.1318,7.5854 6.1548,7.0104 C6.1778,6.4344 6.6938,6.2904 7.2688,6.3124 C7.8448,6.3354 8.2618,6.5174 8.2388,7.0924 L8.2388,7.0924 Z M5.8918,9.3714 L5.4828,9.3714 L5.2778,9.0164 L5.4828,8.6614 L5.8918,8.6614 L6.0968,9.0164 L5.8918,9.3714 Z M4.2188,8.0934 C3.6438,8.1154 3.1588,7.6674 3.1358,7.0924 C3.1128,6.5174 3.5298,6.3354 4.1058,6.3124 C4.6808,6.2904 5.1968,6.4344 5.2198,7.0104 C5.2428,7.5854 4.7938,8.0704 4.2188,8.0934 L4.2188,8.0934 Z M5.6878,2.5654 C3.7078,2.5654 2.0978,4.2144 2.0978,6.2404 C2.0978,6.5724 2.1948,6.8894 2.2898,7.1974 C2.3548,7.4104 2.4228,7.6314 2.4568,7.8544 C2.4698,7.9444 2.5248,8.6044 2.5538,8.9664 C2.5648,9.1054 2.6698,9.2184 2.8078,9.2394 L3.2888,9.3124 C3.3588,9.3224 3.4138,9.3754 3.4278,9.4444 L3.4908,9.7684 C3.5178,9.9094 3.6418,10.0114 3.7858,10.0114 L7.5168,10.0084 C7.6578,10.0084 7.7798,9.9104 7.8098,9.7724 L7.8828,9.4384 C7.8988,9.3724 7.9528,9.3234 8.0208,9.3134 L8.6058,9.2284 C8.7468,9.2084 8.8538,9.0914 8.8628,8.9494 C8.8848,8.5764 8.9268,7.8974 8.9398,7.8044 C8.9708,7.5854 9.0358,7.3684 9.0978,7.1574 C9.1858,6.8614 9.2768,6.5564 9.2768,6.2394 C9.2768,4.2134 7.6668,2.5654 5.6878,2.5654 L5.6878,2.5654 Z" id="Fill-12" fill="#FFFFFF"></path>
                </g>
            </g>
        </g>
    </g>
</svg>