<?xml version="1.0" encoding="UTF-8"?>
<svg width="17px" height="11px" viewBox="0 0 17 11" version="1.1" xmlns="http://www.w3.org/2000/svg" xmlns:xlink="http://www.w3.org/1999/xlink">
    <title>Group 21</title>
    <defs>
        <polygon id="path-1" points="0 0.7868 5.6435141 0.7868 5.6435141 1.7868 0 1.7868"></polygon>
        <polygon id="path-3" points="0.1924 0.373892256 3.875 0.373892256 3.875 2.7146 0.1924 2.7146"></polygon>
        <polygon id="path-5" points="0.89605 0.71355 5.18530284 0.71355 5.18530284 5 0.89605 5"></polygon>
        <polygon id="path-7" points="0.1947 0.025 2.8727 0.025 2.8727 2.7027 0.1947 2.7027"></polygon>
    </defs>
    <g id="Responsive" stroke="none" stroke-width="1" fill="none" fill-rule="evenodd">
        <g id="Galaxy-S10+" transform="translate(-6.000000, -40.000000)">
            <g id="Group-10" transform="translate(0.000000, 18.000000)">
                <g id="Group-21" transform="translate(6.000000, 22.000000)">
                    <path d="M8.3872,3.46457 L3.6822,3.46457 C3.4242,3.46457 3.2132,3.25257 3.2132,2.99557 C3.2132,2.73757 3.4242,2.52557 3.6822,2.52557 L8.3872,2.52557 C8.6452,2.52557 8.8562,2.73757 8.8562,2.99557 C8.8562,3.25257 8.6452,3.46457 8.3872,3.46457" id="Fill-1" fill="#FFFFFF"></path>
                    <path d="M6.939,5.56667 L2.232,5.56667 C1.974,5.56667 1.762,5.35467 1.762,5.09767 C1.762,4.83967 1.974,4.62767 2.232,4.62767 L6.937,4.62767 C7.195,4.62767 7.4060141,4.83967 7.4060141,5.09767 C7.408,5.35667 7.197,5.56667 6.939,5.56667" id="Fill-3" fill="#FFFFFF"></path>
                    <g id="Group-7" transform="translate(0.000000, 5.975270)">
                        <mask id="mask-2" fill="white">
                            <use xlink:href="#path-1"></use>
                        </mask>
                        <g id="Clip-6"></g>
                        <path d="M5.1765,1.7563 L0.4695,1.7563 C0.2115,1.7563 -0.0005,1.5443 -0.0005,1.2873 C-0.0005,1.0293 0.2115,0.8173 0.4695,0.8173 L5.1745,0.8173 C5.4325,0.8173 5.6435141,1.0293 5.6435141,1.2873 C5.6455,1.5443 5.4345,1.7563 5.1765,1.7563" id="Fill-5" fill="#FFFFFF" mask="url(#mask-2)"></path>
                    </g>
                    <path d="M13.9074,3.15657 L12.4444,1.69557 C12.1174,1.36857 11.5874,1.36857 11.2604,1.69557 L9.2964,3.65957 C9.0854,3.87157 9.0224,4.18757 9.1374,4.46457 C9.2524,4.73857 9.5214,4.91957 9.8204,4.91957 C10.0154,4.91957 10.2044,4.84157 10.3424,4.70357 L11.8534,3.19257 L12.8614,4.20057 C13.1504,4.48957 13.6184,4.48957 13.9054,4.20057 L13.9074,4.20057 C14.1944,3.91057 14.1944,3.44557 13.9074,3.15657" id="Fill-8" fill="#FFFFFF"></path>
                    <g id="Group-12" transform="translate(13.000000, 3.975270)">
                        <mask id="mask-4" fill="white">
                            <use xlink:href="#path-3"></use>
                        </mask>
                        <g id="Clip-11"></g>
                        <path d="M3.2044,1.3776 L1.5294,1.3776 L1.5294,0.5416 C1.5294,0.4746 1.4904,0.4136 1.4274,0.3866 C1.3644,0.3616 1.2934,0.3736 1.2444,0.4216 L0.2414,1.4256 C0.2094,1.4576 0.1924,1.4996 0.1924,1.5436 L0.1924,2.2116 C0.1924,2.4886 0.4174,2.7146 0.6954,2.7146 L3.2064,2.7146 C3.5754,2.7146 3.8754,2.4146 3.8754,2.0466 C3.8734,1.6776 3.5734,1.3776 3.2044,1.3776" id="Fill-10" fill="#FFFFFF" mask="url(#mask-4)"></path>
                    </g>
                    <g id="Group-15" transform="translate(6.000000, 5.975270)">
                        <mask id="mask-6" fill="white">
                            <use xlink:href="#path-5"></use>
                        </mask>
                        <g id="Clip-14"></g>
                        <path d="M5.1368,1.5698 L4.3278,0.7608 C4.2608,0.6978 4.1578,0.6978 4.0908,0.7608 L1.1128,3.7408 C0.8238,4.0298 0.8238,4.4978 1.1128,4.7848 C1.4018,5.0718 1.8678,5.0718 2.1568,4.7848 L5.1348,1.8068 C5.2018,1.7418 5.2018,1.6348 5.1368,1.5698" id="Fill-13" fill="#FFFFFF" mask="url(#mask-6)"></path>
                    </g>
                    <path d="M13.9426,7.73957 L12.0086,5.80157 C11.8226,5.61057 11.5476,5.53357 11.2896,5.60257 C11.0316,5.66957 10.8306,5.87057 10.7616,6.12857 C10.6946,6.38657 10.7696,6.66057 10.9606,6.84757 L12.2686,8.15457 L10.6816,8.99957 C10.3296,9.20057 10.2066,9.64957 10.4076,10.00357 L10.4306,10.04757 C10.5626,10.27757 10.8076,10.41857 11.0736,10.41857 C11.0796,10.41857 11.0856,10.41757 11.0926,10.41757 L11.0926,10.41857 L11.0936,10.41757 C11.2126,10.41457 11.3316,10.38157 11.4346,10.32157 L13.4986,9.21157 L13.7666,9.05857 C13.9936,8.92857 14.1466,8.70157 14.1796,8.44157 C14.2136,8.18457 14.1256,7.92457 13.9426,7.73957 L13.9426,7.73957 Z" id="Fill-16" fill="#FFFFFF"></path>
                    <g id="Group-20" transform="translate(14.000000, 0.975270)">
                        <mask id="mask-8" fill="white">
                            <use xlink:href="#path-7"></use>
                        </mask>
                        <g id="Clip-19"></g>
                        <path d="M1.5337,0.0247 C0.7937,0.0247 0.1947,0.6237 0.1947,1.3637 C0.1967,2.1037 0.7957,2.7027 1.5337,2.7027 C2.2737,2.7027 2.8727,2.1037 2.8727,1.3637 C2.8727,0.6237 2.2737,0.0247 1.5337,0.0247" id="Fill-18" fill="#FFFFFF" mask="url(#mask-8)"></path>
                    </g>
                </g>
            </g>
        </g>
    </g>
</svg>