<?xml version="1.0" encoding="UTF-8"?>
<svg width="135px" height="118px" viewBox="0 0 135 118" version="1.1" xmlns="http://www.w3.org/2000/svg" xmlns:xlink="http://www.w3.org/1999/xlink">
    <title>Group 39</title>
    <g id="Responsive" stroke="none" stroke-width="1" fill="none" fill-rule="evenodd">
        <g id="Galaxy-S10+-Copy-10" transform="translate(-115.000000, -136.000000)">
            <g id="Group-18" transform="translate(-39.000000, 136.000000)">
                <g id="Group-39" transform="translate(154.000000, 0.000000)">
                    <path d="M109.261933,18.1694362 L134.720838,17 C134.720838,17 136.804836,39.3167827 129.584822,51.5526153 C122.289568,63.9164409 99,72 99,72 L99.5852564,63.5724597 C99.5852564,63.5724597 118.641689,59.037707 124.200362,48.3842881 C131.088613,35.1830082 127.674028,24.8765704 127.674028,24.8765704 L108.39339,27.284439 L109.261933,18.1694362 Z" id="Fill-1" fill="#FDCA4C"></path>
                    <polygon id="Fill-3" fill="#E52D2B" points="73 103 64 103 65.3606052 88 71.6493454 88"></polygon>
                    <path d="M25.7380671,18.1694362 L0.279161805,17 C0.279161805,17 -1.8048357,39.3167827 5.41517794,51.5526153 C12.7104316,63.9164409 36,72 36,72 L35.4147436,63.5724597 C35.4147436,63.5724597 16.3583109,59.037707 10.7996377,48.3842881 C3.91138716,35.1830082 7.32597187,24.8765704 7.32597187,24.8765704 L26.6066098,27.284439 L25.7380671,18.1694362 Z" id="Fill-5" fill="#FDCA4C"></path>
                    <path d="M112.864713,4 L68,4 L23.1352871,4 C23.1352871,4 21.3164273,57.1517395 31.0170129,73.8886802 C40.7175986,90.6251192 68,94 68,94 C68,94 95.2824014,90.6251192 104.982987,73.8886802 C114.683573,57.1517395 112.864713,4 112.864713,4" id="Fill-7" fill="#FDCA4C"></path>
                    <path d="M87.8114946,4 C87.7989802,4.2147241 87.7959767,4.4349668 87.8034854,4.66173151 C87.9196186,8.0953103 90.4244933,10.8385611 92.1524764,13.581812 C94.1843083,16.8071887 95.7410949,20.3200348 96.7933025,23.9853952 C99.0538968,31.8629601 98.998333,40.4514223 96.3297705,48.2216251 C91.2649579,62.9668493 77.3860298,74.0968823 62.0098835,76.4849353 C50.5912791,78.2584159 38.678107,75.3250238 29,68.9866494 C29.6632612,70.8393973 30.3996062,72.4914685 31.2170444,73.8886802 C41.0122858,90.6251192 68.5609018,94 68.5609018,94 C68.5609018,94 96.1100183,90.6251192 105.904759,73.8886802 C115.700001,57.1517395 113.863393,4 113.863393,4 L87.8114946,4 Z" id="Fill-9" fill="#F9B947"></path>
                    <path d="M48,25.063288 C50.1768129,25.4943439 51.9830069,27.059102 53.1443137,28.9099018 C54.3056205,30.7607016 54.9051362,32.8890716 55.4246145,35 C55.2232465,32.9214631 55.3328519,30.7836249 56.046561,28.815219 C56.7602702,26.8473115 58.1203959,25.057308 60,24.0656301 C59.1894303,24.4931978 56.4528655,20.8314646 56.1107949,20.277321 C55.1126216,18.6602382 54.6053783,16.8742214 54.4733421,15 C53.8427291,16.9793691 53.8621012,18.7873125 52.6982455,20.6635272 C51.5608989,22.4968854 49.9346616,24.0461952 48,25.063288" id="Fill-11" fill="#FEFEFE"></path>
                    <path d="M52,24.5284101 C52.9070709,24.7223284 53.6595892,25.4265856 54.143492,26.2590791 C54.6273948,27.0920938 54.8772467,28.0502172 55.0935216,29 C55.0095793,28.0648132 55.0555007,27.1025195 55.3527553,26.2168549 C55.6500099,25.3311903 56.2168675,24.5258036 57,24.079583 C56.6622556,24.2719374 55.5221213,22.6241529 55.3794193,22.3749783 C54.9636579,21.646742 54.7523208,20.8434405 54.6975114,20 C54.4343275,20.8903562 54.4427217,21.7040834 53.9573375,22.5485665 C53.4838041,23.3737619 52.8063401,24.0707211 52,24.5284101" id="Fill-13" fill="#FEFEFE"></path>
                    <path d="M53,24.5093573 C53.362602,24.5742057 53.6638635,24.8087915 53.8572842,25.0864645 C54.0507049,25.3641375 54.1506307,25.6831568 54.2376948,26 C54.2040564,25.6879443 54.2223596,25.3676193 54.3410834,25.0721021 C54.4598071,24.7770202 54.6868662,24.5084869 55,24.3596402 C54.8649518,24.4240534 54.4088548,23.8743653 54.3519664,23.7916727 C54.1852585,23.5488176 54.1006678,23.2807196 54.0789018,23 C53.9735345,23.2968229 53.9769973,23.5679675 53.7830819,23.8495575 C53.5936186,24.124184 53.3225328,24.3570289 53,24.5093573" id="Fill-15" fill="#FEFEFE"></path>
                    <path d="M75,48.579309 C77.5393599,49.1183067 79.6465704,51.0737523 81.001378,53.387351 C82.3561856,55.7009497 83.0560168,58.3615882 83.6622799,61 C83.4269129,58.4020004 83.5547249,55.7297434 84.3871912,53.2696504 C85.2201399,50.8095575 86.8069384,48.5717317 89,47.3320873 C88.0537086,47.8670438 84.8613015,43.2898565 84.4619492,42.5967872 C83.2976539,40.5756719 82.7058601,38.3428976 82.5520033,36 C81.8164812,38.4742372 81.8386674,40.7342898 80.480966,43.0797131 C79.1541324,45.3715902 77.2572088,47.3083451 75,48.579309" id="Fill-17" fill="#FEFEFE"></path>
                    <path d="M79,48.5348739 C80.0883319,48.7720163 80.9911908,49.632239 81.572115,50.6500399 C82.1525587,51.6683575 82.4523905,52.8390869 82.7123408,54 C82.6114359,52.856653 82.6662129,51.6807571 83.0232242,50.5983749 C83.3797549,49.5159927 84.0601425,48.531774 85,47.9861913 C84.5944582,48.2212672 83.225995,46.2073646 83.0554176,45.902541 C82.5561784,45.0133859 82.3024746,44.0312339 82.2366461,43 C81.9214383,44.088582 81.9310483,45.0831337 81.3491631,46.1148842 C80.7802515,47.1233855 79.9672459,47.9753417 79,48.5348739" id="Fill-19" fill="#FEFEFE"></path>
                    <path d="M81,49.0127059 C81.3626881,49.0988235 81.663992,49.4117647 81.8573721,49.7821176 C82.0511535,50.152 82.1510532,50.5778824 82.2377131,51 C82.204012,50.5844706 82.2220662,50.1567059 82.3412237,49.7632941 C82.4599799,49.3694118 82.6870612,49.0112941 83,48.8131765 C82.8651956,48.8988235 82.4090271,48.1665882 82.3520562,48.0555294 C82.1855567,47.7322353 82.1009027,47.3750588 82.0788365,47 C81.9737212,47.3957647 81.9769308,47.7576471 81.7831494,48.1327059 C81.5933801,48.4992941 81.3225677,48.8094118 81,49.0127059" id="Fill-21" fill="#FEFEFE"></path>
                    <path d="M44,64.0570117 C45.813949,64.4451983 47.3192531,65.8530082 48.2869486,67.5187646 C49.2546441,69.184521 49.7543321,71.1006222 50.187299,73 C50.0192963,71.1295082 50.1104978,69.2052986 50.7052273,67.4341338 C51.2999568,65.6624623 52.4337349,64.0514373 54,63.1590135 C53.3241492,63.5441595 51.0436327,60.2486275 50.7585081,59.749458 C49.9271348,58.2940117 49.5042481,56.686534 49.3943263,55 C48.8687179,56.7813001 48.8850382,58.4085419 47.9149426,60.097103 C46.9674075,61.7471494 45.6123458,63.1417833 44,64.0570117" id="Fill-23" fill="#FEFEFE"></path>
                    <path d="M47,64.025391 C47.7257309,64.197631 48.3278286,64.8237681 48.7147958,65.5640338 C49.101763,66.3042995 49.3017184,67.1555526 49.474894,68 C49.4074983,67.1681173 49.4440973,66.3131994 49.6819906,65.5263399 C49.919884,64.7389569 50.3733542,64.0227734 51,63.6264642 C50.7295247,63.7976572 49.8176746,62.3328316 49.7034144,62.1113801 C49.3708994,61.4643021 49.2017407,60.7496892 49.1575541,60 C48.9473332,60.7920948 48.9540281,61.5150841 48.5661683,62.2658203 C48.1867887,62.9987566 47.6449453,63.6186113 47,64.025391" id="Fill-25" fill="#FEFEFE"></path>
                    <path d="M48,64.5095886 C48.3627725,64.574496 48.6640581,64.8090477 48.8574623,65.0863793 C49.0508664,65.3642026 49.1509223,65.6833306 49.2375629,66 C49.2040246,65.6882478 49.2219117,65.3676446 49.3409726,65.0721193 C49.4600335,64.7770857 49.686976,64.5086051 50,64.3601049 C49.8647289,64.4240288 49.4086082,63.8747746 49.3515931,63.7916735 C49.1855785,63.5492542 49.1011738,63.2812654 49.078815,63 C48.9737283,63.2970005 48.9770822,63.5684314 48.7831191,63.8496968 C48.5936277,64.1245697 48.3225266,64.3571546 48,64.5095886" id="Fill-27" fill="#FEFEFE"></path>
                    <path d="M32.5987611,55.1401993 C33.2578929,57.9339471 34.2149954,60.9452983 36.667089,62.524177 C37.0693495,62.7833959 37.5240118,63.0009993 38.0059023,63 C38.8802923,62.997991 39.6067244,62.2549303 39.8558896,61.436661 C40.1050547,60.6183917 39.9832977,59.7419612 39.8476697,58.8986224 C38.3352114,49.4739854 35.3904386,39.7821073 38.0259383,30.5961323 C39.0071867,27.1771505 41.0190029,23.2913743 39.1921341,19.7961812 C37.9920313,17.5003142 35.1114763,16.0899027 32.710757,17.6747981 C29.8337983,19.5740652 30.2910292,24.7027885 30.1353652,27.6439451 C29.9093184,31.9177976 29.9668576,36.205689 30.3043865,40.4720206 C30.6948309,45.40821 31.4603074,50.31582 32.5987611,55.1401993" id="Fill-29" fill="#FEFEFE"></path>
                    <polygon id="Fill-31" fill="#F9B947" points="73.9596243 31.0241767 60.4596243 29 52 39.9755698 57.0403757 52.9758233 70.5403757 55 79 44.0239233"></polygon>
                    <polygon id="Fill-33" fill="#EEAD5A" points="113.835701 5 23.42741 5 21 0 116 0"></polygon>
                    <path d="M89.5090039,111 L46.4909961,111 C45.115468,111 44,109.900497 44,108.544657 L44,105.455343 C44,104.099012 45.115468,103 46.4909961,103 L89.5090039,103 C90.884532,103 92,104.099012 92,105.455343 L92,108.544657 C92,109.900497 90.884532,111 89.5090039,111" id="Fill-35" fill="#E52D2B"></path>
                    <path d="M100.100377,118 L36.8996226,118 C35.2978711,118 34,116.900497 34,115.544657 L34,112.455343 C34,111.099012 35.2978711,110 36.8996226,110 L100.100377,110 C101.701549,110 103,111.099012 103,112.455343 L103,115.544657 C103,116.900497 101.701549,118 100.100377,118" id="Fill-37" fill="#E52D2B"></path>
                </g>
            </g>
        </g>
    </g>
</svg>