<?xml version="1.0" encoding="UTF-8"?>
<svg width="1120px" height="433px" viewBox="0 0 1120 433" version="1.1" xmlns="http://www.w3.org/2000/svg" xmlns:xlink="http://www.w3.org/1999/xlink">
    <title>Group 2</title>
    <defs>
        <polygon id="path-1" points="0 0.9054 62.016 0.9054 62.016 70 0 70"></polygon>
        <polygon id="path-3" points="0.8345 0.228 35.9345 0.228 35.9345 71.3188 0.8345 71.3188"></polygon>
        <polygon id="path-5" points="0.8221 0.9054 62.8381 0.9054 62.8381 70 0.8221 70"></polygon>
        <polygon id="path-7" points="0.846340729 0.281802765 40.735 0.281802765 40.735 41.4295332 0.846340729 41.4295332"></polygon>
    </defs>
    <g id="homepage" stroke="none" stroke-width="1" fill="none" fill-rule="evenodd">
        <g id="HOMEPAGE-Copy-4" transform="translate(-392.000000, -62.000000)">
            <g id="Group-2" transform="translate(392.000000, 62.000000)">
                <g id="Group-21" transform="translate(784.000000, 39.000000)">
                    <g id="Group-3" transform="translate(0.000000, 323.772000)">
                        <mask id="mask-2" fill="white">
                            <use xlink:href="#path-1"></use>
                        </mask>
                        <g id="Clip-2"></g>
                        <path d="M62.016,0.9054 C62.016,0.9054 40.765,4.1834 25.07,19.8354 C9.375,35.4864 0,60.6274 0,60.6274 L32.14,70.0004 C32.14,70.0004 19.295,40.0284 62.016,0.9054" id="Fill-1" fill="#FAE0B2" mask="url(#mask-2)"></path>
                    </g>
                    <path d="M67.9026,340.096 L65.6006,321.991 L49.3816,313.626 C47.5336,312.672 47.5806,310.015 49.4606,309.129 L65.9666,301.344 L68.9116,283.333 C69.2476,281.282 71.7886,280.505 73.2136,282.02 L85.7176,295.312 L103.7566,292.547 C105.8116,292.232 107.3356,294.41 106.3346,296.232 L97.5576,312.233 L105.7616,328.534 C106.6956,330.39 105.0956,332.513 103.0536,332.125 L85.1236,328.721 L72.1556,341.561 C70.6786,343.024 68.1656,342.157 67.9026,340.096" id="Fill-4" fill="#F7CC7F"></path>
                    <path d="M210.745,332.0969 L206.646,323.2439 C206.179,322.2359 207.071,321.1289 208.156,321.3729 L217.676,323.5059 L224.83,316.8719 C225.646,316.1159 226.973,316.6229 227.076,317.7289 L227.99,327.4419 L236.51,332.1969 C237.481,332.7379 237.409,334.1569 236.389,334.5979 L227.433,338.4679 L225.544,348.0409 C225.33,349.1309 223.958,349.5009 223.223,348.6669 L216.775,341.3459 L207.088,342.5079 C205.984,342.6399 205.208,341.4489 205.774,340.4929 L210.745,332.0969 Z" id="Fill-6" fill="#3AC1C5"></path>
                    <g id="Group-10" transform="translate(59.000000, 0.772000)">
                        <mask id="mask-4" fill="white">
                            <use xlink:href="#path-3"></use>
                        </mask>
                        <g id="Clip-9"></g>
                        <polygon id="Fill-8" fill="#3AC1C5" mask="url(#mask-4)" points="27.4365 0.2278 10.8775 11.2788 20.1385 27.3558 4.3065 38.9628 11.2615 55.4178 0.8345 66.0408 6.2115 71.3188 20.1585 57.1118 13.5675 41.5178 30.0365 29.4428 20.9285 13.6308 35.9345 3.6168"></polygon>
                    </g>
                    <polygon id="Fill-11" fill="#F1404B" points="211.8729 253.3507 200.1579 237.2537 184.4709 247.1597 172.2319 231.8117 156.0719 239.4287 145.0349 229.4407 139.9779 235.0287 154.7399 248.3867 170.0539 241.1677 182.7869 257.1347 198.2169 247.3917 208.8309 261.9797"></polygon>
                    <path d="M325.3383,195.7565 C338.7253,208.5965 339.1683,229.8585 326.3283,243.2445 C313.4883,256.6325 292.2273,257.0755 278.8403,244.2355 C265.4533,231.3955 265.0093,210.1335 277.8493,196.7465 C290.6893,183.3595 311.9523,182.9165 325.3383,195.7565" id="Fill-13" fill="#FFF3D9"></path>
                    <path d="M324.6063,223.8361 L310.3143,228.2291 L305.8313,242.4921 C305.4683,243.6451 303.9423,243.8821 303.2483,242.8931 L294.6543,230.6591 L279.7033,230.8031 C278.4953,230.8141 277.7983,229.4361 278.5233,228.4701 L287.5033,216.5161 L282.7473,202.3411 C282.3623,201.1961 283.4583,200.1071 284.6003,200.4991 L298.7453,205.3451 L310.7553,196.4411 C311.7263,195.7211 313.1003,196.4271 313.0813,197.6351 L312.8433,212.5841 L325.0223,221.2561 C326.0073,221.9561 325.7613,223.4811 324.6063,223.8361" id="Fill-15" fill="#FED333"></path>
                    <path d="M173.7627,153.6213 L179.6337,163.3743 C180.2697,164.4313 181.8407,164.3003 182.2927,163.1523 L186.4627,152.5593 L197.5537,149.9893 C198.7547,149.7113 199.1157,148.1763 198.1637,147.3923 L189.3787,140.1523 L190.3607,128.8103 C190.4677,127.5823 189.1187,126.7643 188.0787,127.4273 L178.4797,133.5463 L167.9957,129.1063 C166.8607,128.6253 165.6667,129.6553 165.9747,130.8493 L168.8277,141.8703 L161.3667,150.4683 C160.5577,151.3993 161.1677,152.8543 162.3997,152.9293 L173.7627,153.6213 Z" id="Fill-17" fill="#F1404B"></path>
                    <path d="M153.1541,377.0378 C153.1541,380.7948 150.1071,383.8418 146.3501,383.8418 C142.5921,383.8418 139.5461,380.7948 139.5461,377.0378 C139.5461,373.2788 142.5921,370.2328 146.3501,370.2328 C150.1071,370.2328 153.1541,373.2788 153.1541,377.0378" id="Fill-19" fill="#50BFA5"></path>
                    <path d="M31.1541,146.0378 C31.1541,149.7948 28.1071,152.8418 24.3501,152.8418 C20.5921,152.8418 17.5461,149.7948 17.5461,146.0378 C17.5461,142.2788 20.5921,139.2328 24.3501,139.2328 C28.1071,139.2328 31.1541,142.2788 31.1541,146.0378" id="Fill-19" fill="#50BFA5"></path>
                </g>
                <g id="Group-23">
                    <g id="Group-3" transform="translate(315.000000, 295.662000)">
                        <mask id="mask-6" fill="white">
                            <use xlink:href="#path-5"></use>
                        </mask>
                        <g id="Clip-2"></g>
                        <path d="M0.8221,0.9054 C0.8221,0.9054 22.0721,4.1834 37.7681,19.8354 C53.4631,35.4864 62.8381,60.6274 62.8381,60.6274 L30.6981,70.0004 C30.6981,70.0004 43.5431,40.0284 0.8221,0.9054" id="Fill-1" fill="#FAE0B2" mask="url(#mask-6)"></path>
                    </g>
                    <path d="M309.9345,311.9861 L312.2375,293.8811 L328.4565,285.5161 C330.3035,284.5621 330.2565,281.9061 328.3765,281.0191 L311.8715,273.2341 L308.9265,255.2231 C308.5905,253.1721 306.0485,252.3961 304.6245,253.9101 L292.1195,267.2021 L274.0815,264.4371 C272.0265,264.1221 270.5025,266.3001 271.5025,268.1221 L280.2805,284.1231 L272.0765,300.4241 C271.1415,302.2801 272.7415,304.4031 274.7835,304.0151 L292.7135,300.6111 L305.6815,313.4511 C307.1595,314.9141 309.6725,314.0481 309.9345,311.9861" id="Fill-4" fill="#F7CC7F"></path>
                    <g id="Group-8" transform="translate(383.000000, 75.662000)">
                        <mask id="mask-8" fill="white">
                            <use xlink:href="#path-7"></use>
                        </mask>
                        <g id="Clip-7"></g>
                        <path d="M1.0859,30.5412 L7.3569,19.9482 L2.1859,8.7762 C1.5969,7.5042 2.7229,6.1082 4.0909,6.4152 L16.1039,9.1062 L25.1299,0.7352 C26.1579,-0.2178 27.8329,0.4212 27.9649,1.8172 L29.1179,14.0742 L39.8679,20.0722 C41.0919,20.7552 41.0019,22.5462 39.7149,23.1022 L28.4139,27.9862 L26.0309,40.0642 C25.7599,41.4392 24.0289,41.9072 23.1019,40.8542 L14.9659,31.6172 L2.7429,33.0822 C1.3509,33.2492 0.3719,31.7482 1.0859,30.5412" id="Fill-6" fill="#F1404B" mask="url(#mask-8)"></path>
                    </g>
                    <polygon id="Fill-9" fill="#3AC1C5" points="320.8065 65.4633 324.7825 45.9573 306.8865 41.0623 309.9555 21.6733 293.4295 14.8863 293.3535 0.0003 285.8185 0.0393 285.9195 19.9473 301.5805 26.3793 298.3885 46.5493 315.9895 51.3643 312.3865 69.0413"></polygon>
                    <polygon id="Fill-11" fill="#F7CC7F" points="166.0042 91.4077 173.5832 105.5597 189.9282 104.6447 197.3002 121.1107 214.4102 114.7667 223.5682 133.0197 240.0442 129.1217 251.7262 145.2427 245.6252 149.6637 236.8892 137.6107 219.5052 141.7247 210.7012 124.1787 193.3052 130.6277 185.1702 112.4587 169.2072 113.3517 162.1832 100.2347 151.8242 103.0137 149.8712 95.7357"></polygon>
                    <polygon id="Fill-13" fill="#F1404B" points="95.4975 203.1498 83.4325 204.3748 79.3185 185.1798 61.4575 184.7948 56.0305 170.9338 49.0135 173.6818 56.2725 192.2198 73.1985 192.5848 77.4795 212.5528 95.6335 210.7098"></polygon>
                    <polygon id="Fill-15" fill="#F1404B" points="212.7954 343.2534 208.2794 354.5084 189.3684 349.2434 180.7374 364.8854 165.9414 363.2594 165.1184 370.7494 184.9084 372.9244 193.0874 358.1014 212.7604 363.5774 219.5544 346.6414"></polygon>
                    <path d="M105.8497,285.3692 C119.2367,298.2092 119.6807,319.4712 106.8407,332.8582 C94.0007,346.2452 72.7387,346.6892 59.3517,333.8482 C45.9637,321.0082 45.5207,299.7472 58.3607,286.3602 C71.2007,272.9722 92.4627,272.5292 105.8497,285.3692" id="Fill-17" fill="#FFF3D9"></path>
                    <path d="M105.1171,313.4492 L90.8251,317.8422 L86.3421,332.1052 C85.9801,333.2582 84.4541,333.4952 83.7591,332.5062 L75.1651,320.2722 L60.2141,320.4162 C59.0061,320.4272 58.3091,319.0492 59.0351,318.0832 L68.0151,306.1292 L63.2581,291.9542 C62.8741,290.8082 63.9691,289.7202 65.1121,290.1112 L79.2561,294.9582 L91.2671,286.0542 C92.2381,285.3342 93.6121,286.0402 93.5931,287.2482 L93.3541,302.1972 L105.5341,310.8692 C106.5181,311.5692 106.2721,313.0942 105.1171,313.4492" id="Fill-19" fill="#FED333"></path>
                    <path d="M14.7425,316.2908 C14.7425,320.0488 11.4425,323.0948 7.3715,323.0948 C3.3005,323.0948 0.0005,320.0488 0.0005,316.2908 C0.0005,312.5328 3.3005,309.4868 7.3715,309.4868 C11.4425,309.4868 14.7425,312.5328 14.7425,316.2908" id="Fill-21" fill="#50BFA5"></path>
                </g>
            </g>
        </g>
    </g>
</svg>