<?xml version="1.0" encoding="utf-8"?>
<!-- Generator: Adobe Illustrator 25.3.0, SVG Export Plug-In . SVG Version: 6.00 Build 0)  -->
<svg version="1.1" id="Calque_1" xmlns="http://www.w3.org/2000/svg" xmlns:xlink="http://www.w3.org/1999/xlink" x="0px" y="0px"
	 viewBox="0 0 40 40" style="enable-background:new 0 0 40 40;" xml:space="preserve">
<style type="text/css">
	.st0{filter:url(#Adobe_OpacityMaskFilter);}
	.st1{fill-rule:evenodd;clip-rule:evenodd;fill:#FFFFFF;}
	.st2{mask:url(#mask-3_1_);fill-rule:evenodd;clip-rule:evenodd;fill:#FF0000;}
</style>
<g id="Responsive">
	<g id="Galaxy-S10_x2B_-Copy-12" transform="translate(-183.000000, -645.000000)">
		<g id="Group-6" transform="translate(205.000000, 667.000000)">
			<g id="Group-3">
				<g id="Clip-2">
				</g>
				<defs>
					<filter id="Adobe_OpacityMaskFilter" filterUnits="userSpaceOnUse" x="-13.5" y="-9.9" width="22.9" height="15.8">
						<feColorMatrix  type="matrix" values="1 0 0 0 0  0 1 0 0 0  0 0 1 0 0  0 0 0 1 0"/>
					</filter>
				</defs>
				<mask maskUnits="userSpaceOnUse" x="-13.5" y="-9.9" width="22.9" height="15.8" id="mask-3_1_">
					<g class="st0">
						<polygon id="path-2_1_" class="st1" points="-13.5,-9.9 9.5,-9.9 9.5,5.9 -13.5,5.9 						"/>
					</g>
				</mask>
				<path id="Fill-1" class="st2" d="M9-7.4c-0.3-1-1-1.7-2-2C5.2-9.9-2-9.9-2-9.9s-7.2,0-8.9,0.5c-1,0.3-1.8,1-2,2
					C-13.5-5.7-13.5-2-13.5-2s0,3.7,0.5,5.4c0.3,1,1,1.7,2,2C-9.2,5.9-2,5.9-2,5.9s7.2,0,8.9-0.5c1-0.3,1.8-1,2-2
					C9.5,1.7,9.5-2,9.5-2S9.5-5.7,9-7.4"/>
			</g>
			<polygon id="Fill-4" class="st1" points="-4.5,1.9 1.5,-1.6 -4.5,-5.1 			"/>
		</g>
	</g>
</g>
</svg>
